<svg width="36" height="36" viewBox="0 0 36 36" fill="none" xmlns="http://www.w3.org/2000/svg">
<rect width="36" height="36" rx="10" fill="#006EFD"/>
<path fill-rule="evenodd" clip-rule="evenodd" d="M15.591 21.2065C19.28 21.2065 22.433 21.7655 22.433 23.9985C22.433 26.2315 19.301 26.8065 15.591 26.8065C11.901 26.8065 8.74902 26.2525 8.74902 24.0185C8.74902 21.7845 11.88 21.2065 15.591 21.2065Z" fill="white" stroke="white" stroke-width="1.5" stroke-linecap="round" stroke-linejoin="round"/>
<path fill-rule="evenodd" clip-rule="evenodd" d="M15.5911 18.0195C13.1691 18.0195 11.2051 16.0565 11.2051 13.6345C11.2051 11.2125 13.1691 9.24951 15.5911 9.24951C18.0121 9.24951 19.9761 11.2125 19.9761 13.6345C19.9851 16.0475 18.0351 18.0105 15.6221 18.0195H15.5911Z" fill="white" stroke="white" stroke-width="1.5" stroke-linecap="round" stroke-linejoin="round"/>
<path d="M22.4824 16.8813C24.0834 16.6563 25.3164 15.2823 25.3194 13.6193C25.3194 11.9803 24.1244 10.6203 22.5574 10.3633" stroke="white" stroke-width="1.5" stroke-linecap="round" stroke-linejoin="round"/>
<path d="M24.5947 20.7319C26.1457 20.9629 27.2287 21.5069 27.2287 22.6269C27.2287 23.3979 26.7187 23.8979 25.8947 24.2109" stroke="white" stroke-width="1.5" stroke-linecap="round" stroke-linejoin="round"/>
</svg>
