<svg width="40" height="40" viewBox="0 0 40 40" fill="none" xmlns="http://www.w3.org/2000/svg">
<circle cx="20" cy="20" r="20" fill="#E7E9ED"/>
<path d="M20 11.75C19.2707 11.75 18.5712 12.0397 18.0555 12.5555C17.5397 13.0712 17.25 13.7707 17.25 14.5V20C17.25 20.7293 17.5397 21.4288 18.0555 21.9445C18.5712 22.4603 19.2707 22.75 20 22.75C20.7293 22.75 21.4288 22.4603 21.9445 21.9445C22.4603 21.4288 22.75 20.7293 22.75 20V14.5C22.75 13.7707 22.4603 13.0712 21.9445 12.5555C21.4288 12.0397 20.7293 11.75 20 11.75ZM20 10.375C21.094 10.375 22.1432 10.8096 22.9168 11.5832C23.6904 12.3568 24.125 13.406 24.125 14.5V20C24.125 21.094 23.6904 22.1432 22.9168 22.9168C22.1432 23.6904 21.094 24.125 20 24.125C18.906 24.125 17.8568 23.6904 17.0832 22.9168C16.3096 22.1432 15.875 21.094 15.875 20V14.5C15.875 13.406 16.3096 12.3568 17.0832 11.5832C17.8568 10.8096 18.906 10.375 20 10.375ZM19.3125 28.25V26.875C17.6715 26.875 16.0977 26.2231 14.9373 25.0627C13.7769 23.9023 13.125 22.3285 13.125 20.6875V20C13.125 19.8177 13.1974 19.6428 13.3264 19.5139C13.4553 19.3849 13.6302 19.3125 13.8125 19.3125C13.9948 19.3125 14.1697 19.3849 14.2986 19.5139C14.4276 19.6428 14.5 19.8177 14.5 20V20.6875C14.5 21.9639 15.007 23.1879 15.9095 24.0905C16.8121 24.993 18.0361 25.5 19.3125 25.5H20.6875C21.9639 25.5 23.1879 24.993 24.0905 24.0905C24.993 23.1879 25.5 21.9639 25.5 20.6875V20C25.5 19.8177 25.5724 19.6428 25.7014 19.5139C25.8303 19.3849 26.0052 19.3125 26.1875 19.3125C26.3698 19.3125 26.5447 19.3849 26.6736 19.5139C26.8026 19.6428 26.875 19.8177 26.875 20V20.6875C26.875 22.3285 26.2231 23.9023 25.0627 25.0627C23.9023 26.2231 22.3285 26.875 20.6875 26.875V28.25H22.0625C22.2448 28.25 22.4197 28.3224 22.5486 28.4514C22.6776 28.5803 22.75 28.7552 22.75 28.9375C22.75 29.1198 22.6776 29.2947 22.5486 29.4236C22.4197 29.5526 22.2448 29.625 22.0625 29.625H17.9375C17.7552 29.625 17.5803 29.5526 17.4514 29.4236C17.3224 29.2947 17.25 29.1198 17.25 28.9375C17.25 28.7552 17.3224 28.5803 17.4514 28.4514C17.5803 28.3224 17.7552 28.25 17.9375 28.25H19.3125Z" fill="#3E424F"/>
</svg>
